<svg width="22" height="22" viewBox="0 0 22 22" fill="none" xmlns="http://www.w3.org/2000/svg">
<path d="M21.5001 11.2413C21.5001 10.5351 21.4375 9.86459 21.3302 9.21198H11.228V13.2439H17.0122C16.7529 14.567 15.993 15.6845 14.8666 16.4444V19.1264H18.3174C20.3379 17.2579 21.5001 14.5044 21.5001 11.2413Z" fill="#4285F4"/>
<path d="M11.228 21.728C14.1246 21.728 16.5473 20.7625 18.3174 19.1265L14.8666 16.4445C13.9011 17.0882 12.6763 17.4815 11.228 17.4815C8.42982 17.4815 6.06073 15.5952 5.21143 13.0473H1.65332V15.8098C3.41449 19.3142 7.03518 21.728 11.228 21.728Z" fill="#34A853"/>
<path d="M5.21136 13.0473C4.98787 12.4036 4.87164 11.7152 4.87164 11C4.87164 10.2848 4.99681 9.59644 5.21136 8.95276V6.19031H1.65326C0.920178 7.63858 0.5 9.26565 0.5 11C0.5 12.7344 0.920178 14.3614 1.65326 15.8097L5.21136 13.0473Z" fill="#FBBC05"/>
<path d="M11.228 4.51852C12.8104 4.51852 14.2229 5.06386 15.3404 6.12772L18.3979 3.07025C16.5473 1.33589 14.1246 0.272034 11.228 0.272034C7.03518 0.272034 3.41449 2.68583 1.65332 6.1903L5.21143 8.95275C6.06073 6.40486 8.42982 4.51852 11.228 4.51852Z" fill="#EA4335"/>
</svg>
